#!OML:ASF F:\VICON\USERDATA\INSTALL\rory3\rory3.ASF
:FULLY-SPECIFIED
:DEGREES
722
root 0.946918 16.5594 6.10052 44.2365 35.3078 11.6096
lowerback 44.8882 0.953656 8.87444
upperback 12.4362 5.84562 3.65209
thorax -6.35616 2.93376 -2.95985
lowerneck -17.4826 -13.0441 -14.3476
upperneck 14.7808 -16.6924 13.6694
head 9.98297 -7.34017 4.4666
rclavicle -1.90833e-014 -5.68027e-014
rhumerus 40.3871 -3.25896 -62.0188
rradius 25.7628
rwrist 14.8871
rhand -30.3084 5.64692
rfingers 7.12502
rthumb -3.61524 -24.3022
lclavicle -1.90833e-014 -5.68027e-014
lhumerus -26.3467 -45.8587 101.24
lradius 90.6007
lwrist -15.4058
lhand -49.4371 18.7166
lfingers 7.12502
lthumb -22.0487 47.4797
rfemur -83.3867 -23.1486 29.9048
rtibia 59.5358
rfoot -12.971 -7.40687
rtoes 5.49545
lfemur -73.8009 -3.82757 -24.9209
ltibia 39.2653
lfoot 0.0390043 -15.3329
ltoes -0.694541
723
root 0.932003 16.5842 6.09343 43.6907 35.3213 11.562
lowerback 44.7031 0.99743 8.78719
upperback 12.261 5.86168 3.73215
thorax -6.52195 2.92377 -2.84525
lowerneck -17.2687 -13.0976 -14.6976
upperneck 15.0101 -16.766 13.8627
head 10.0902 -7.3755 4.58202
rclavicle -9.54166e-015 5.06901e-015
rhumerus 39.1344 -2.25444 -61.4838
rradius 26.1337
rwrist 14.1719
rhand -28.3591 5.77053
rfingers 7.12502
rthumb -1.73269 -24.2022
lclavicle -9.54166e-015 5.06901e-015
lhumerus -26.2961 -45.686 101.622
lradius 89.8233
lwrist -14.9264
lhand -48.866 18.542
lfingers 7.12502
lthumb -21.5004 47.3688
rfemur -82.6121 -23.1874 29.7234
rtibia 59.18
rfoot -12.8542 -7.40528
rtoes 5.84272
lfemur -73.0247 -3.87017 -24.7297
ltibia 38.821
lfoot 0.192387 -15.1503
ltoes -0.65897
724
root 0.917039 16.613 6.08546 43.1312 35.2866 11.5678
lowerback 44.4747 1.0371 8.61514
upperback 12.1134 5.83194 3.7989
thorax -6.65633 2.89621 -2.68302
lowerneck -16.9921 -13.0876 -14.8744
upperneck 15.1377 -16.7388 13.7963
head 10.0906 -7.38629 4.6039
rclavicle -3.81667e-014 4.67144e-014
rhumerus 37.9621 -1.35314 -61.243
rradius 26.4649
rwrist 13.6788
rhand -26.9713 5.87768
rfingers 7.12502
rthumb -0.392322 -24.1017
lclavicle -3.81667e-014 4.67144e-014
lhumerus -26.2447 -45.4684 102.003
lradius 89.0381
lwrist -14.4893
lhand -48.4713 19.0866
lfingers 7.12502
lthumb -21.1212 47.9562
rfemur -81.7854 -23.2526 29.4455
rtibia 58.8255
rfoot -12.7749 -7.36424
rtoes 6.48726
lfemur -72.1837 -3.93309 -24.5928
ltibia 38.3719
lfoot 0.2533 -14.941
ltoes -0.918628
725
root 0.89956 16.6387 6.07953 42.5676 35.2573 11.5293
lowerback 44.2091 1.10426 8.37425
upperback 11.9754 5.8044 3.88568
thorax -6.77847 2.86944 -2.46526
lowerneck -16.7058 -13.0386 -15.084
upperneck 15.0962 -16.6379 13.7306
head 10.0209 -7.37103 4.6453
rclavicle -4.13472e-014 3.57812e-014
rhumerus 36.8847 -0.5551 -61.2423
rradius 26.6192
rwrist 13.5347
rhand -26.1763 6.06436
rfingers 7.12502
rthumb 0.375509 -23.9151
lclavicle -4.13472e-014 3.57812e-014
lhumerus -26.1577 -45.0795 102.34
lradius 88.175
lwrist -14.2575
lhand -47.9841 19.1515
lfingers 7.12502
lthumb -20.6531 48.0726
rfemur -80.9419 -23.2181 29.1657
rtibia 58.4718
rfoot -12.6849 -7.48212
rtoes 6.21429
lfemur -71.3955 -3.9621 -24.4262
ltibia 37.9381
lfoot 0.339725 -14.732
ltoes -1.63957
726
root 0.881097 16.6638 6.0754 41.9119 35.2111 11.3921
lowerback 43.9709 1.22062 8.16011
upperback 11.843 5.8428 3.9416
thorax -6.89011 2.87452 -2.31906
lowerneck -16.451 -13.0358 -15.061
upperneck 15.0377 -16.6297 13.5549
head 9.93233 -7.39476 4.59381
rclavicle -1.27222e-014 -4.53229e-014
rhumerus 35.7733 0.266776 -61.15
rradius 26.7018
rwrist 13.2529
rhand -25.1248 6.39301
rfingers 7.12502
rthumb 1.39103 -23.5822
lclavicle -1.27222e-014 -4.53229e-014
lhumerus -26.0518 -44.8151 102.576
lradius 87.2877
lwrist -13.9497
lhand -47.5199 19.0578
lfingers 7.12502
lthumb -20.207 48.0268
rfemur -80.0102 -23.0899 28.9172
rtibia 58.1102
rfoot -12.5943 -7.63573
rtoes 6.00173
lfemur -70.5738 -3.87524 -24.2583
ltibia 37.5182
lfoot 0.372672 -14.5889
ltoes -2.4349
727
root 0.864529 16.6907 6.07 41.1959 35.0833 11.1957
lowerback 43.6571 1.38138 7.92507
upperback 11.7694 5.91268 3.99367
thorax -6.91413 2.90018 -2.17375
lowerneck -16.2887 -13.0313 -14.9104
upperneck 15.0174 -16.6124 13.2379
head 9.84582 -7.41532 4.47233
rclavicle -4.13472e-014 1.31198e-014
rhumerus 34.6849 1.41397 -60.6824
rradius 26.8794
rwrist 12.4688
rhand -23.9382 6.41631
rfingers 7.12502
rthumb 2.53704 -23.5483
lclavicle -4.13472e-014 1.31198e-014
lhumerus -25.8782 -44.7043 102.732
lradius 86.4891
lwrist -13.4457
lhand -47.1161 19.4219
lfingers 7.12502
lthumb -19.8189 48.4314
rfemur -79.0456 -22.8942 28.6562
rtibia 57.7315
rfoot -12.4948 -7.75461
rtoes 6.26962
lfemur -69.725 -3.73579 -24.0612
ltibia 37.129
lfoot 0.461556 -14.3947
ltoes -2.63482
728
root 0.848342 16.7213 6.06866 40.4729 35.0552 11.0132
lowerback 43.3034 1.51581 7.65142
upperback 11.7308 5.9508 4.16834
thorax -6.90699 2.91083 -1.86403
lowerneck -16.274 -13.0182 -15.0458
upperneck 15.054 -16.5283 13.0416
head 9.83447 -7.40205 4.44105
rclavicle 3.18055e-015 5.12864e-014
rhumerus 33.643 2.62708 -60.2009
rradius 27.141
rwrist 11.7808
rhand -22.7357 6.46055
rfingers 7.12502
rthumb 3.69837 -23.4871
lclavicle 3.18055e-015 5.12864e-014
lhumerus -25.6042 -44.4286 102.944
lradius 85.6312
lwrist -13.2689
lhand -46.5262 20.193
lfingers 7.12502
lthumb -19.2518 49.2601
rfemur -78.0165 -22.718 28.3958
rtibia 57.3344
rfoot -12.4189 -7.94762
rtoes 6.61333
lfemur -68.8623 -3.60592 -23.8918
ltibia 36.7626
lfoot 0.449558 -14.2727
ltoes -3.15782
729
root 0.831922 16.7542 6.0678 39.6839 35.1324 10.7477
lowerback 42.9969 1.59604 7.52397
upperback 11.661 5.99272 4.34721
thorax -6.93151 2.92224 -1.62542
lowerneck -16.2754 -13.0326 -15.297
upperneck 15.1155 -16.5017 13.067
head 9.87741 -7.3997 4.49183
rclavicle 4.45278e-014 3.1408e-014
rhumerus 32.5588 3.7102 -59.8543
rradius 27.428
rwrist 11.2603
rhand -21.8614 6.52642
rfingers 7.12502
rthumb 4.54262 -23.4049
lclavicle 4.45278e-014 3.1408e-014
lhumerus -25.3705 -44.1283 103.241
lradius 84.6405
lwrist -13.2218
lhand -45.602 21.5446
lfingers 7.12502
lthumb -18.3628 50.6978
rfemur -76.96 -22.6042 28.2847
rtibia 56.9235
rfoot -12.3902 -8.06084
rtoes 7.22206
lfemur -68.0136 -3.46902 -23.6661
ltibia 36.418
lfoot 0.345542 -14.2192
ltoes -4.16946
730
root 0.816134 16.7824 6.06558 38.8848 35.1256 10.5506
lowerback 42.5268 1.51167 7.55438
upperback 11.7739 5.84159 4.21513
thorax -6.66027 2.87848 -1.70298
lowerneck -16.4868 -13.0077 -15.1747
upperneck 15.0363 -16.4863 13.1419
head 9.88156 -7.37332 4.49277
rclavicle 1.20861e-013 1.39149e-014
rhumerus 31.8423 4.57761 -59.9352
rradius 27.5494
rwrist 10.9796
rhand -21.1131 6.63913
rfingers 7.12502
rthumb 5.2651 -23.2755
lclavicle 1.20861e-013 1.39149e-014
lhumerus -24.6533 -43.991 102.72
lradius 83.6646
lwrist -12.6058
lhand -44.812 22.9857
lfingers 7.12502
lthumb -17.6027 52.2088
rfemur -75.8925 -22.4909 28.0928
rtibia 56.5346
rfoot -12.263 -8.16494
rtoes 6.75458
lfemur -67.1036 -3.35769 -23.4589
ltibia 36.0813
lfoot 0.41395 -14.0804
ltoes -4.12895
731
root 0.799355 16.8117 6.06502 38.0159 34.9744 10.2923
lowerback 42.198 1.54467 7.40191
upperback 11.7994 5.77455 4.10322
thorax -6.5445 2.85834 -1.71041
lowerneck -16.6397 -12.9347 -15.0235
upperneck 15.0316 -16.4099 13.145
head 9.8822 -7.32397 4.47962
rclavicle -1.27222e-014 3.10104e-014
rhumerus 31.0413 5.1228 -60.6565
rradius 27.4692
rwrist 11.5506
rhand -20.589 6.93343
rfingers 7.12502
rthumb 5.77116 -22.968
lclavicle -1.27222e-014 3.10104e-014
lhumerus -24.0308 -43.8172 102.25
lradius 82.6772
lwrist -11.815
lhand -44.2076 23.2454
lfingers 7.12502
lthumb -17.021 52.5197
rfemur -74.7635 -22.2188 27.8413
rtibia 56.1647
rfoot -12.188 -8.30383
rtoes 6.26219
lfemur -66.1193 -3.13041 -23.2333
ltibia 35.7508
lfoot 0.441596 -13.9361
ltoes -3.97656
732
root 0.781676 16.8421 6.06875 37.145 34.7932 10.1207
lowerback 41.9095 1.68415 7.11584
upperback 11.7928 5.79958 4.08727
thorax -6.49549 2.87142 -1.58871
lowerneck -16.8497 -12.8986 -14.8368
upperneck 15.1661 -16.3611 12.9768
head 9.92503 -7.29505 4.39366
rclavicle -3.81667e-014 7.15625e-015
rhumerus 30.0556 5.71173 -60.9929
rradius 27.5279
rwrist 11.8444
rhand -19.9438 7.20094
rfingers 7.12502
rthumb 6.39404 -22.6826
lclavicle -3.81667e-014 7.15625e-015
lhumerus -23.5853 -43.6753 102.102
lradius 81.6862
lwrist -11.3997
lhand -43.8402 23.1399
lfingers 7.12502
lthumb -16.6673 52.4443
rfemur -73.6031 -22.0403 27.5383
rtibia 55.8268
rfoot -12.1437 -8.39455
rtoes 6.18855
lfemur -65.0536 -2.87892 -23.1491
ltibia 35.426
lfoot 0.418185 -13.8791
ltoes -4.18514
733
root 0.765887 16.8726 6.07481 36.3174 34.6439 10.0606
lowerback 41.6294 1.78218 6.79103
upperback 11.7225 5.76787 4.06913
thorax -6.52555 2.85342 -1.43133
lowerneck -17.0466 -12.8481 -14.5232
upperneck 15.3691 -16.2701 12.5246
head 9.94283 -7.26569 4.19907
rclavicle 1.59028e-014 9.54166e-015
rhumerus 28.949 6.64397 -61.0625
rradius 27.7299
rwrist 11.855
rhand -19.0588 7.21935
rfingers 7.12502
rthumb 7.2484 -22.6365
lclavicle 1.59028e-014 9.54166e-015
lhumerus -23.4013 -43.3971 102.166
lradius 80.7226
lwrist -11.1398
lhand -43.4296 23.6815
lfingers 7.12502
lthumb -16.272 53.0187
rfemur -72.4381 -21.975 27.1796
rtibia 55.5175
rfoot -12.1378 -8.47588
rtoes 5.83176
lfemur -63.9581 -2.6874 -23.1708
ltibia 35.1014
lfoot 0.41954 -13.7987
ltoes -4.25578
734
root 0.755247 16.8969 6.07624 35.6127 34.5396 10.0085
lowerback 41.2326 1.78916 6.591
upperback 11.6335 5.65969 3.97782
thorax -6.52251 2.80508 -1.38042
lowerneck -17.1876 -12.8084 -14.3143
upperneck 15.4104 -16.2136 12.3103
head 9.9334 -7.24244 4.09849
rclavicle -3.18055e-015 -3.33958e-014
rhumerus 27.8936 7.53373 -61.4312
rradius 27.8997
rwrist 11.8339
rhand -18.5206 7.12541
rfingers 7.12502
rthumb 7.76789 -22.7119
lclavicle -3.18055e-015 -3.33958e-014
lhumerus -23.2464 -43.1104 102.216
lradius 79.6927
lwrist -10.8331
lhand -42.9525 24.0879
lfingers 7.12502
lthumb -15.8126 53.4621
rfemur -71.452 -21.9179 26.872
rtibia 55.2349
rfoot -12.0854 -8.50521
rtoes 5.76042
lfemur -63.0148 -2.64714 -23.079
ltibia 34.774
lfoot 0.481791 -13.5827
ltoes -4.14208
